<svg width="600" height="100" viewBox="0 0 600 100" fill="none" xmlns="http://www.w3.org/2000/svg">
<rect width="600" height="100" fill="white"/>
<path d="M270.516 47.5079H270.256C269.326 47.5079 268.86 48.0066 268.86 49.004V51.996C268.86 52.9934 269.326 53.4921 270.256 53.4921H270.516C270.901 52.7402 271.093 51.7428 271.093 50.5C271.093 49.2571 270.901 48.2598 270.516 47.5079ZM271.614 53.4921H275.279C276.209 53.4921 276.674 52.9934 276.674 51.996V49.004C276.674 48.0066 276.209 47.5079 275.279 47.5079H271.614C271.887 48.3365 272.023 49.3339 272.023 50.5C272.023 51.6661 271.887 52.6635 271.614 53.4921ZM276.209 44.5159C277.76 44.5159 278.535 45.5132 278.535 47.5079V53.4921C278.535 55.4868 277.76 56.4841 276.209 56.4841H269.326C267.775 56.4841 267 55.4868 267 53.4921V47.5079C267 45.5132 267.775 44.5159 269.326 44.5159H276.209Z" fill="#030303"/>
<path d="M278.902 47.5079C277.972 47.5079 277.506 48.0066 277.506 49.004L275.646 47.5079C275.646 45.5132 276.421 44.5159 277.972 44.5159H284.855C286.406 44.5159 287.181 45.5132 287.181 47.5079V53.4921C287.181 55.4868 286.406 56.4841 284.855 56.4841H280.483V53.4921H283.925C284.855 53.4921 285.32 52.9934 285.32 51.996V49.004C285.32 48.0066 284.855 47.5079 283.925 47.5079H278.902Z" fill="#030303"/>
<path d="M298.601 52.4563V49.4643C298.601 48.4669 298.135 47.9682 297.205 47.9682H292.182C291.252 47.9682 290.787 48.4669 290.787 49.4643V52.4563C290.787 53.4537 291.252 53.9524 292.182 53.9524H297.205C298.135 53.9524 298.601 53.4537 298.601 52.4563ZM300.461 52.4563C300.461 53.4537 300.926 53.9524 301.856 53.9524H306.88C307.81 53.9524 308.275 53.4537 308.275 52.4563V49.4643C308.275 48.4669 307.81 47.9682 306.88 47.9682H301.856C300.926 47.9682 300.461 48.4669 300.461 49.4643V52.4563ZM299.531 45.3905C299.89 45.1143 300.356 44.9762 300.926 44.9762H307.81C309.36 44.9762 310.135 45.9735 310.135 47.9682V53.9524C310.135 55.9471 309.36 56.9444 307.81 56.9444H300.926C300.356 56.9444 299.89 56.8063 299.531 56.5302C299.171 56.8063 298.706 56.9444 298.135 56.9444H291.252C289.701 56.9444 288.926 55.9471 288.926 53.9524V47.9682C288.926 45.9735 289.701 44.9762 291.252 44.9762H298.135C298.706 44.9762 299.171 45.1143 299.531 45.3905Z" fill="#030303"/>
<path d="M322.326 51.996C322.326 52.9934 322.791 53.4921 323.721 53.4921H328.744C329.674 53.4921 330.14 52.9934 330.14 51.996V49.004C330.14 48.0066 329.674 47.5079 328.744 47.5079H325.302V44.5159H329.674C331.225 44.5159 332 45.5132 332 47.5079V53.4921C332 55.4868 331.225 56.4841 329.674 56.4841H322.791C322.22 56.4841 321.755 56.346 321.395 56.0698C321.036 56.346 320.571 56.4841 320 56.4841H313.116C312.955 56.4841 312.8 56.4764 312.651 56.4611V60.5119C312.651 61.5093 313.116 62.0079 314.047 62.0079H328.744C329.674 62.0079 330.14 61.5093 330.14 60.5119V56.9444H332V62.0079C332 64.0026 331.225 65 329.674 65H313.116C311.566 65 310.791 64.0026 310.791 62.0079V51.996H312.651C312.651 52.9934 313.116 53.4921 314.047 53.4921H319.07C320 53.4921 320.465 52.9934 320.465 51.996V49.004C320.465 48.0066 320 47.5079 319.07 47.5079H314.047C313.116 47.5079 312.651 48.0066 312.651 49.004H310.791V47.5079C310.791 45.5132 311.566 44.5159 313.116 44.5159H320C321.55 44.5159 322.326 45.5132 322.326 47.5079V51.996Z" fill="#030303"/>
<path d="M327.412 57.5776C328.653 57.5776 328.744 58.3448 328.744 59.8791C328.744 61.4135 328.55 61.2791 327.31 61.2791C326.069 61.2791 325.759 60.8955 325.759 59.3611C325.759 57.8267 326.172 57.5776 327.412 57.5776Z" fill="#030303"/>
<path d="M325.581 37.7619C324.651 37.7619 324.186 38.1839 324.186 39.0278C324.186 39.8717 324.651 40.2937 325.581 40.2937H327.721V43.0556H324.651C323.101 43.0556 322.326 42.0582 322.326 40.0635V37.9921C322.326 35.9974 323.101 35 324.651 35H330.791C332.341 35 333.116 35.9974 333.116 37.9921L331.256 39.0278C331.256 38.1839 330.791 37.7619 329.86 37.7619H325.581Z" fill="#030303"/>
<path d="M270.516 47.5079H270.256C269.326 47.5079 268.86 48.0066 268.86 49.004V51.996C268.86 52.9934 269.326 53.4921 270.256 53.4921H270.516C270.901 52.7402 271.093 51.7428 271.093 50.5C271.093 49.2571 270.901 48.2598 270.516 47.5079ZM271.614 53.4921H275.279C276.209 53.4921 276.674 52.9934 276.674 51.996V49.004C276.674 48.0066 276.209 47.5079 275.279 47.5079H271.614C271.887 48.3365 272.023 49.3339 272.023 50.5C272.023 51.6661 271.887 52.6635 271.614 53.4921ZM276.209 44.5159C277.76 44.5159 278.535 45.5132 278.535 47.5079V53.4921C278.535 55.4868 277.76 56.4841 276.209 56.4841H269.326C267.775 56.4841 267 55.4868 267 53.4921V47.5079C267 45.5132 267.775 44.5159 269.326 44.5159H276.209Z" fill="#030303"/>
<path d="M278.902 47.5079C277.972 47.5079 277.506 48.0066 277.506 49.004L275.646 47.5079C275.646 45.5132 276.421 44.5159 277.972 44.5159H284.855C286.406 44.5159 287.181 45.5132 287.181 47.5079V53.4921C287.181 55.4868 286.406 56.4841 284.855 56.4841H280.483V53.4921H283.925C284.855 53.4921 285.32 52.9934 285.32 51.996V49.004C285.32 48.0066 284.855 47.5079 283.925 47.5079H278.902Z" fill="#030303"/>
<path d="M298.601 52.4563V49.4643C298.601 48.4669 298.135 47.9682 297.205 47.9682H292.182C291.252 47.9682 290.787 48.4669 290.787 49.4643V52.4563C290.787 53.4537 291.252 53.9524 292.182 53.9524H297.205C298.135 53.9524 298.601 53.4537 298.601 52.4563ZM300.461 52.4563C300.461 53.4537 300.926 53.9524 301.856 53.9524H306.88C307.81 53.9524 308.275 53.4537 308.275 52.4563V49.4643C308.275 48.4669 307.81 47.9682 306.88 47.9682H301.856C300.926 47.9682 300.461 48.4669 300.461 49.4643V52.4563ZM299.531 45.3905C299.89 45.1143 300.356 44.9762 300.926 44.9762H307.81C309.36 44.9762 310.135 45.9735 310.135 47.9682V53.9524C310.135 55.9471 309.36 56.9444 307.81 56.9444H300.926C300.356 56.9444 299.89 56.8063 299.531 56.5302C299.171 56.8063 298.706 56.9444 298.135 56.9444H291.252C289.701 56.9444 288.926 55.9471 288.926 53.9524V47.9682C288.926 45.9735 289.701 44.9762 291.252 44.9762H298.135C298.706 44.9762 299.171 45.1143 299.531 45.3905Z" fill="#030303"/>
<path d="M322.326 51.996C322.326 52.9934 322.791 53.4921 323.721 53.4921H328.744C329.674 53.4921 330.14 52.9934 330.14 51.996V49.004C330.14 48.0066 329.674 47.5079 328.744 47.5079H325.302V44.5159H329.674C331.225 44.5159 332 45.5132 332 47.5079V53.4921C332 55.4868 331.225 56.4841 329.674 56.4841H322.791C322.22 56.4841 321.755 56.346 321.395 56.0698C321.036 56.346 320.571 56.4841 320 56.4841H313.116C312.955 56.4841 312.8 56.4764 312.651 56.4611V60.5119C312.651 61.5093 313.116 62.0079 314.047 62.0079H328.744C329.674 62.0079 330.14 61.5093 330.14 60.5119V56.9444H332V62.0079C332 64.0026 331.225 65 329.674 65H313.116C311.566 65 310.791 64.0026 310.791 62.0079V51.996H312.651C312.651 52.9934 313.116 53.4921 314.047 53.4921H319.07C320 53.4921 320.465 52.9934 320.465 51.996V49.004C320.465 48.0066 320 47.5079 319.07 47.5079H314.047C313.116 47.5079 312.651 48.0066 312.651 49.004H310.791V47.5079C310.791 45.5132 311.566 44.5159 313.116 44.5159H320C321.55 44.5159 322.326 45.5132 322.326 47.5079V51.996Z" fill="#030303"/>
<path d="M327.412 57.5776C328.653 57.5776 328.744 58.3448 328.744 59.8791C328.744 61.4135 328.55 61.2791 327.31 61.2791C326.069 61.2791 325.759 60.8955 325.759 59.3611C325.759 57.8267 326.172 57.5776 327.412 57.5776Z" fill="#030303"/>
<path d="M325.581 37.7619C324.651 37.7619 324.186 38.1839 324.186 39.0278C324.186 39.8717 324.651 40.2937 325.581 40.2937H327.721V43.0556H324.651C323.101 43.0556 322.326 42.0582 322.326 40.0635V37.9921C322.326 35.9974 323.101 35 324.651 35H330.791C332.341 35 333.116 35.9974 333.116 37.9921L331.256 39.0278C331.256 38.1839 330.791 37.7619 329.86 37.7619H325.581Z" fill="#030303"/>
<path d="M266 69L334 69" stroke="black" stroke-width="4"/>
<path d="M266 32L334 32" stroke="black" stroke-width="4"/>
<path d="M266 32L334 32" stroke="black" stroke-width="4"/>
</svg>
